# xmcd
#
# Track frame offsets: 
#        150
#        16744
#        30381
#        44197
#        63688
#        74661
#        84106
#        101889
#        116257
#        131879
#        144038
#        159006
#        172669
#
# Disc length: 2452 seconds
#
# Revision: 0
# Processed by: cddbd v1.5.1PL2 Copyright (c) Steve Scherf et al.
# Submitted via: ExactAudioCopy v0.95a4
#
DISCID=a209920d
DTITLE=Don Williams - Borrowed Tales
DYEAR=2002
DGENRE=Ballad
TTITLE0=Fever
TTITLE1=Pretend
TTITLE2=Crying in the Rain
TTITLE3=You've Got a Friend
TTITLE4=Reason to Believe
TTITLE5=My Rifle,My Pony,and Me
TTITLE6=If You Could Read My Mind
TTITLE7=The Long Black Veil
TTITLE8=Games People Play
TTITLE9=I'll Be There
TTITLE10=Lay Down Sally
TTITLE11=Peace Train
TTITLE12=The Letter
EXTD=
EXTT0=
EXTT1=
EXTT2=
EXTT3=
EXTT4=
EXTT5=
EXTT6=
EXTT7=
EXTT8=
EXTT9=
EXTT10=
EXTT11=
EXTT12=
PLAYORDER=
